<?xml version="1.0" encoding="UTF-8"?>
<!DOCTYPE svg PUBLIC "-//W3C//DTD SVG 1.1//EN" "http://www.w3.org/Graphics/SVG/1.1/DTD/svg11.dtd">
<!-- Creator: CorelDRAW 2020 (64-Bit) -->
<svg xmlns="http://www.w3.org/2000/svg" xml:space="preserve" width="250px" height="62px" version="1.1" style="shape-rendering:geometricPrecision; text-rendering:geometricPrecision; image-rendering:optimizeQuality; fill-rule:evenodd; clip-rule:evenodd"
viewBox="0 0 249.93 62"
 xmlns:xlink="http://www.w3.org/1999/xlink"
 xmlns:xodm="http://www.corel.com/coreldraw/odm/2003">
 <defs>
  <style type="text/css">
   <![CDATA[
    .fil0 {fill:#ffffff;fill-rule:nonzero}
    .fil3 {fill:url(#id0)}
    .fil2 {fill:url(#id1)}
    .fil1 {fill:url(#id2)}
    .fil4 {fill:url(#id3)}
   ]]>
  </style>
  <linearGradient id="id0" gradientUnits="userSpaceOnUse" x1="25.27" y1="25.94" x2="28.43" y2="29.61">
   <stop offset="0" style="stop-opacity:1; stop-color:#EE7B1B"/>
   <stop offset="1" style="stop-opacity:1; stop-color:#C83327"/>
  </linearGradient>
  <linearGradient id="id1" gradientUnits="userSpaceOnUse" xlink:href="#id0" x1="40.1" y1="25.7" x2="31.52" y2="13.17">
  </linearGradient>
  <linearGradient id="id2" gradientUnits="userSpaceOnUse" xlink:href="#id0" x1="39.84" y1="47.18" x2="36.75" y2="14.84">
  </linearGradient>
  <linearGradient id="id3" gradientUnits="userSpaceOnUse" xlink:href="#id0" x1="7.06" y1="39.06" x2="44.47" y2="39.06">
  </linearGradient>
 </defs>
 <g id="Layer_x0020_1">
  <metadata id="CorelCorpID_0Corel-Layer"/>
  <g id="_2581727084240">
   <path class="fil0" d="M84.72 21c-3.53,0 -4.97,0.89 -4.97,3.58 0,3.59 3.58,3.29 9.02,3.96 4.13,0.51 8.08,1.84 8.08,7.53 0,6.57 -3.58,9.34 -12.17,9.34 -8.93,0 -11.76,-3.44 -11.76,-8.01l6.46 0c0.14,2.17 1.35,3.36 5.44,3.36 3.85,0 5.62,-1.3 5.62,-4.51 0,-3.36 -5.02,-3.36 -8.83,-3.77 -4.04,-0.4 -8.32,-1.99 -8.32,-7.86 0,-5.32 4.09,-8.08 11.43,-8.08 6.46,0 10.74,1.88 11.34,7.56l-6.46 0c-0.18,-2.4 -1.76,-3.1 -4.88,-3.1z"/>
   <path class="fil0" d="M127.69 36.32c0,6.24 -3.72,8.87 -12.23,8.87 -8.5,0 -11.94,-2.63 -11.94,-8.5l0 -11.55c0,-6.02 3.3,-8.49 11.94,-8.49 8.65,0 12.23,2.51 12.23,8.82l-6.42 0c0,-2.77 -0.83,-4.32 -5.81,-4.32 -4.64,0 -5.53,1.55 -5.53,4.25l0 11.04c0,2.69 0.89,4.24 5.53,4.24 4.65,0 5.81,-1.55 5.81,-4.36l6.42 0z"/>
   <path class="fil0" d="M149.21 35.11l-2.97 -10.53 -2.97 10.53 5.94 0zm10.04 10l-6.6 0 -1.81 -5.02 -9.15 0 -1.86 5.02 -6.6 0 9.9 -28.39 6.36 0 9.76 28.39z"/>
   <polygon class="fil0" points="171.23,45.11 165.56,45.11 165.56,16.68 171.74,16.68 179.04,29.27 186.38,16.68 192.56,16.68 192.56,45.11 186.89,45.11 186.89,35.07 186.89,26.95 179.78,37.59 178.34,37.59 171.23,26.95 "/>
   <path class="fil0" d="M209.55 31.49c4.65,0 6.18,-1.26 6.18,-3.95l0 -2.11c0,-2.69 -1.11,-4.1 -6.09,-4.1l-2.6 0 0 10.16 2.51 0zm0 -14.81c8.65,0 12.69,2.48 12.69,8.5l0 2.62c0,5.87 -4.18,8.6 -12.69,8.6l-2.46 0 0 8.71 -6.56 0 0 -28.43 9.02 0z"/>
   <path class="fil0" d="M239.89 35.11l-2.97 -10.53 -2.98 10.53 5.95 0zm10.04 10l-6.6 0 -1.81 -5.02 -9.16 0 -1.86 5.02 -6.6 0 9.9 -28.39 6.37 0 9.76 28.39z"/>
   <path class="fil0" d="M16.62 29.5c1.82,-0.59 3.61,-1.18 5.46,-1.78 -0.26,4.61 -0.51,9.15 -0.77,13.75 -0.26,-0.11 -0.47,-0.19 -0.67,-0.28 -1.04,-0.47 -2.07,-0.95 -3.11,-1.42 -0.23,-0.1 -0.35,-0.23 -0.37,-0.51 -0.15,-2.99 -0.32,-5.99 -0.48,-8.98 -0.01,-0.25 -0.03,-0.49 -0.06,-0.78z"/>
   <path class="fil0" d="M45.38 29.5c-1.82,-0.59 -3.61,-1.18 -5.46,-1.78 0.26,4.61 0.52,9.15 0.78,13.75 0.25,-0.11 0.46,-0.19 0.67,-0.28 1.03,-0.47 2.06,-0.95 3.1,-1.42 0.23,-0.1 0.35,-0.23 0.37,-0.51 0.15,-2.99 0.32,-5.99 0.48,-8.98 0.02,-0.25 0.04,-0.49 0.06,-0.78z"/>
   <path class="fil0" d="M29.78 20.9l0 -1.39 1.22 0 1.23 0 0 1.39 4.3 -0.01 0 -1.73 2.43 0c0,1.23 -0.03,2.75 0.01,3.93 0.02,0.47 -0.14,0.88 -0.68,1.24 -0.78,0.51 -1.06,1.08 -0.91,1.8 0.24,1.19 0.27,2.39 0.39,3.58 0.38,3.94 0.75,7.89 1.15,11.83 0.04,0.34 -0.17,0.47 -0.66,0.57 -2.41,0.47 -4.83,0.72 -7.26,0.73 -2.42,-0.01 -4.84,-0.26 -7.26,-0.73 -0.49,-0.1 -0.69,-0.23 -0.66,-0.57 0.41,-3.94 0.77,-7.89 1.16,-11.83 0.11,-1.19 0.14,-2.39 0.39,-3.58 0.15,-0.72 -0.14,-1.29 -0.91,-1.8 -0.54,-0.36 -0.7,-0.77 -0.69,-1.24 0.05,-1.18 0.02,-2.7 0.02,-3.93l2.42 0 0 1.73 4.31 0.01z"/>
   <path class="fil1" d="M50.84 35.01c-5.81,10.78 -14.93,35.38 -29.54,22.98 5.35,5.35 14.06,5.35 19.41,0l0 0 17.28 -17.28c8.58,-10.12 -0.55,-17.6 -10.57,-23.17l0 0c6.06,5.22 8.76,7.55 3.42,17.47l0 0z"/>
   <path class="fil2" d="M17.54 14.58c5.22,-6.06 7.55,-8.76 17.47,-3.41l0 0c10.78,5.8 35.38,14.92 22.98,29.54l0 0c5.35,-5.35 5.35,-14.06 0,-19.41l0 0 -17.28 -17.29c-2.83,-2.39 -5.45,-3.41 -7.88,-3.41l0 0c-6.27,0 -11.28,6.76 -15.29,13.98z"/>
   <path class="fil3" d="M31 0c-3.51,0 -7.03,1.34 -9.7,4.01l0 0 -17.29 17.29c-8.58,10.11 0.55,17.59 10.57,23.16l0 0c-6.06,-5.22 -8.76,-7.54 -3.41,-17.47l0 0c5.8,-10.78 14.92,-35.38 29.54,-22.98 -2.68,-2.67 -6.19,-4.01 -9.71,-4.01l0 0c0,0 0,0 0,0l0 0z"/>
   <path class="fil4" d="M4.02 40.71l17.28 17.28 0.01 0.02c10.11,8.55 17.58,-0.58 23.16,-10.59l0 0c-5.22,6.06 -7.55,8.76 -17.48,3.42l0 0c-10.78,-5.81 -35.38,-14.93 -22.98,-29.54l0 0c-5.35,5.35 -5.35,14.06 0.01,19.41l0 0z"/>
  </g>
 </g>
</svg>

